<?xml version="1.0" encoding="UTF-8" standalone="no"?><!DOCTYPE svg PUBLIC "-//W3C//DTD SVG 1.1//EN" "http://www.w3.org/Graphics/SVG/1.1/DTD/svg11.dtd"><svg width="8347px" height="2375px" viewBox="0 0 8347 2375" version="1.1" xmlns="http://www.w3.org/2000/svg" xmlns:xlink="http://www.w3.org/1999/xlink" xml:space="preserve" xmlns:serif="http://www.serif.com/" style="fill-rule:evenodd;clip-rule:evenodd;stroke-linejoin:round;stroke-miterlimit:2;"><g transform="matrix(4.16667,0,0,4.16667,0,0)"><g><g transform="matrix(0.950806,0,0,0.950806,-706.054,-913.516)"><circle cx="1505.13" cy="1237.95" r="102.891"/></g><g transform="matrix(-0.488122,0,0,0.460648,1225.28,-645.079)"><path d="M1409.77,1634.31C1405.21,1634.31 1332.73,1529.19 1213.3,1482.03C1123.7,1446.65 1048.42,1430.03 956.31,1436.46C694.281,1454.75 449.76,1690.33 449.76,1975.23C449.76,2086.79 489.636,2186.89 543.013,2275.93C610.147,2387.93 770.932,2506.3 950.825,2516.71C1129.48,2527.05 1301.98,2461.44 1422.98,2304.54C1276.83,2452.8 1086.87,2512.95 902.882,2453.86C638.91,2369.09 544.24,2117.39 553.11,1975.23C571.828,1675.2 756.114,1523.73 973.883,1487.07C1137.57,1459.52 1301.33,1525.14 1409.77,1634.31Z" style="fill:rgb(170,41,19);"/></g><g transform="matrix(-0.407635,0,0,0.384691,1139.65,-494.955)"><path d="M1409.77,1634.31C1405.21,1634.31 1332.73,1529.19 1213.3,1482.03C1123.7,1446.65 1048.42,1430.03 956.31,1436.46C694.281,1454.75 449.76,1690.33 449.76,1975.23C449.76,2127.15 489.636,2186.89 543.013,2275.93C610.147,2387.93 770.932,2506.3 950.825,2516.71C1129.48,2527.05 1301.98,2461.44 1422.98,2304.54C1276.83,2452.8 1086.87,2512.95 902.882,2453.86C638.91,2369.09 544.24,2117.39 553.11,1975.23C571.828,1675.2 756.114,1523.73 973.883,1487.07C1137.57,1459.52 1301.33,1525.14 1409.77,1634.31Z" style="fill:rgb(170,41,19);"/></g><g transform="matrix(-0.322555,0,0,0.3044,1063.01,-336.265)"><path d="M1409.39,1639.41C1404.83,1639.41 1332.73,1529.19 1213.3,1482.03C1123.7,1446.65 1048.42,1430.03 956.31,1436.46C694.281,1454.75 449.76,1690.33 449.76,1975.23C449.76,2086.79 489.636,2186.89 543.013,2275.93C610.147,2387.93 770.932,2506.3 950.825,2516.71C1129.48,2527.05 1301.98,2461.44 1422.98,2304.54C1276.83,2452.8 1086.87,2512.95 902.882,2453.86C638.91,2369.09 544.24,2117.39 553.11,1975.23C571.828,1675.2 756.114,1523.73 973.883,1487.07C1137.57,1459.52 1300.95,1530.25 1409.39,1639.41Z" style="fill:rgb(170,41,19);"/></g><g transform="matrix(0.954495,0,0,0.560911,-584.744,-295.954)"><path d="M751.86,978.007L777.76,978.007C806.448,978.007 820.793,956.762 820.793,914.271C820.793,871.78 806.448,850.535 777.76,850.535L751.86,850.535L751.86,978.007ZM751.86,1254.65L673.763,1254.65L673.763,743.404L798.081,743.404C831.817,743.404 857.65,758.321 875.58,788.155C893.51,817.989 902.476,860.028 902.476,914.271C902.476,968.515 893.51,1010.55 875.58,1040.39C857.65,1070.22 831.817,1085.14 798.081,1085.14L751.86,1085.14L751.86,1254.65Z" style="fill:rgb(255,165,104);fill-rule:nonzero;"/><path d="M751.86,978.007L777.76,978.007C806.448,978.007 820.793,956.762 820.793,914.271C820.793,871.78 806.448,850.535 777.76,850.535L751.86,850.535L751.86,978.007ZM751.86,1254.65L673.763,1254.65L673.763,743.404L798.081,743.404C831.817,743.404 857.65,758.321 875.58,788.155C893.51,817.989 902.476,860.028 902.476,914.271C902.476,968.515 893.51,1010.55 875.58,1040.39C857.65,1070.22 831.817,1085.14 798.081,1085.14L751.86,1085.14L751.86,1254.65Z" style="fill:rgb(255,165,104);fill-rule:nonzero;"/></g><g transform="matrix(0.954495,0,0,0.560911,-584.744,-295.954)"><path d="M1022.01,971.905L1036.76,971.905C1052.16,971.905 1063.98,966.48 1072.22,955.632C1080.45,944.783 1084.57,929.188 1084.57,908.847C1084.57,888.505 1080.45,872.91 1072.22,862.062C1063.98,851.213 1052.16,845.789 1036.76,845.789L1022.01,845.789L1022.01,971.905ZM1193.75,1254.65L1096.52,1254.65L1022.01,1058.02L1022.01,1254.65L943.915,1254.65L943.915,743.404L1065.44,743.404C1082.18,743.404 1096.79,747.585 1109.27,755.948C1121.76,764.311 1132.05,775.724 1140.15,790.189C1148.26,804.654 1154.37,821.379 1158.48,840.364C1162.6,859.35 1164.66,879.691 1164.66,901.388C1164.66,940.263 1159.15,971.792 1148.12,995.975C1137.1,1020.16 1120.83,1036.55 1099.31,1045.13L1193.75,1254.65Z" style="fill:rgb(255,165,104);fill-rule:nonzero;"/><path d="M1022.01,971.905L1036.76,971.905C1052.16,971.905 1063.98,966.48 1072.22,955.632C1080.45,944.783 1084.57,929.188 1084.57,908.847C1084.57,888.505 1080.45,872.91 1072.22,862.062C1063.98,851.213 1052.16,845.789 1036.76,845.789L1022.01,845.789L1022.01,971.905ZM1193.75,1254.65L1096.52,1254.65L1022.01,1058.02L1022.01,1254.65L943.915,1254.65L943.915,743.404L1065.44,743.404C1082.18,743.404 1096.79,747.585 1109.27,755.948C1121.76,764.311 1132.05,775.724 1140.15,790.189C1148.26,804.654 1154.37,821.379 1158.48,840.364C1162.6,859.35 1164.66,879.691 1164.66,901.388C1164.66,940.263 1159.15,971.792 1148.12,995.975C1137.1,1020.16 1120.83,1036.55 1099.31,1045.13L1193.75,1254.65Z" style="fill:rgb(255,165,104);fill-rule:nonzero;"/></g><g transform="matrix(0.954495,0,0,0.560911,-584.744,-295.954)"><path d="M1288.98,999.027C1288.98,1019.37 1291.23,1038.13 1295.75,1055.3C1300.27,1072.48 1306.38,1087.4 1314.08,1100.06C1321.78,1112.71 1330.75,1122.54 1340.97,1129.55C1351.2,1136.56 1362.03,1140.06 1373.45,1140.06C1384.87,1140.06 1395.69,1136.56 1405.92,1129.55C1416.15,1122.54 1425.18,1112.71 1433.02,1100.06C1440.85,1087.4 1447.03,1072.48 1451.55,1055.3C1456.06,1038.13 1458.32,1019.37 1458.32,999.027C1458.32,978.685 1456.06,959.926 1451.55,942.749C1447.03,925.572 1440.85,910.655 1433.02,897.998C1425.18,885.341 1416.15,875.51 1405.92,868.503C1395.69,861.497 1384.87,857.994 1373.45,857.994C1362.03,857.994 1351.2,861.497 1340.97,868.503C1330.75,875.51 1321.78,885.341 1314.08,897.998C1306.38,910.655 1300.27,925.572 1295.75,942.749C1291.23,959.926 1288.98,978.685 1288.98,999.027ZM1207.29,999.027C1207.29,961.056 1211.41,925.685 1219.64,892.913C1227.88,860.141 1239.3,831.55 1253.91,807.14C1268.52,782.731 1285.99,763.632 1306.31,749.846C1326.63,736.059 1349.01,729.165 1373.45,729.165C1397.62,729.165 1419.93,736.059 1440.39,749.846C1460.84,763.632 1478.44,782.731 1493.18,807.14C1507.93,831.55 1519.41,860.141 1527.65,892.913C1535.88,925.685 1540,961.056 1540,999.027C1540,1037 1535.88,1072.37 1527.65,1105.14C1519.41,1137.91 1507.93,1166.5 1493.18,1190.91C1478.44,1215.32 1460.84,1234.42 1440.39,1248.21C1419.93,1261.99 1397.62,1268.89 1373.45,1268.89C1349.01,1268.89 1326.63,1261.99 1306.31,1248.21C1285.99,1234.42 1268.52,1215.32 1253.91,1190.91C1239.3,1166.5 1227.88,1137.91 1219.64,1105.14C1211.41,1072.37 1207.29,1037 1207.29,999.027Z" style="fill:rgb(255,165,104);fill-rule:nonzero;"/><path d="M1288.98,999.027C1288.98,1019.37 1291.23,1038.13 1295.75,1055.3C1300.27,1072.48 1306.38,1087.4 1314.08,1100.06C1321.78,1112.71 1330.75,1122.54 1340.97,1129.55C1351.2,1136.56 1362.03,1140.06 1373.45,1140.06C1384.87,1140.06 1395.69,1136.56 1405.92,1129.55C1416.15,1122.54 1425.18,1112.71 1433.02,1100.06C1440.85,1087.4 1447.03,1072.48 1451.55,1055.3C1456.06,1038.13 1458.32,1019.37 1458.32,999.027C1458.32,978.685 1456.06,959.926 1451.55,942.749C1447.03,925.572 1440.85,910.655 1433.02,897.998C1425.18,885.341 1416.15,875.51 1405.92,868.503C1395.69,861.497 1384.87,857.994 1373.45,857.994C1362.03,857.994 1351.2,861.497 1340.97,868.503C1330.75,875.51 1321.78,885.341 1314.08,897.998C1306.38,910.655 1300.27,925.572 1295.75,942.749C1291.23,959.926 1288.98,978.685 1288.98,999.027ZM1207.29,999.027C1207.29,961.056 1211.41,925.685 1219.64,892.913C1227.88,860.141 1239.3,831.55 1253.91,807.14C1268.52,782.731 1285.99,763.632 1306.31,749.846C1326.63,736.059 1349.01,729.165 1373.45,729.165C1397.62,729.165 1419.93,736.059 1440.39,749.846C1460.84,763.632 1478.44,782.731 1493.18,807.14C1507.93,831.55 1519.41,860.141 1527.65,892.913C1535.88,925.685 1540,961.056 1540,999.027C1540,1037 1535.88,1072.37 1527.65,1105.14C1519.41,1137.91 1507.93,1166.5 1493.18,1190.91C1478.44,1215.32 1460.84,1234.42 1440.39,1248.21C1419.93,1261.99 1397.62,1268.89 1373.45,1268.89C1349.01,1268.89 1326.63,1261.99 1306.31,1248.21C1285.99,1234.42 1268.52,1215.32 1253.91,1190.91C1239.3,1166.5 1227.88,1137.91 1219.64,1105.14C1211.41,1072.37 1207.29,1037 1207.29,999.027Z" style="fill:rgb(255,165,104);fill-rule:nonzero;"/></g><g transform="matrix(0.954495,0,0,0.560911,-584.744,-295.954)"><path d="M1802.15,855.959L1802.15,1254.65L1724.06,1254.65L1724.06,855.959L1659.9,855.959L1659.9,743.404L1866.3,743.404L1866.3,855.959L1802.15,855.959Z" style="fill:rgb(255,165,104);fill-rule:nonzero;"/><path d="M1802.15,855.959L1802.15,1254.65L1724.06,1254.65L1724.06,855.959L1659.9,855.959L1659.9,743.404L1866.3,743.404L1866.3,855.959L1802.15,855.959Z" style="fill:rgb(255,165,104);fill-rule:nonzero;"/></g><g transform="matrix(0.954495,0,0,0.560911,-584.744,-295.954)"><path d="M2071.91,855.959L1979.07,855.959L1979.07,941.393L2066.72,941.393L2066.72,1053.95L1979.07,1053.95L1979.07,1142.09L2071.91,1142.09L2071.91,1254.65L1900.97,1254.65L1900.97,743.404L2071.91,743.404L2071.91,855.959Z" style="fill:rgb(255,165,104);fill-rule:nonzero;"/><path d="M2071.91,855.959L1979.07,855.959L1979.07,941.393L2066.72,941.393L2066.72,1053.95L1979.07,1053.95L1979.07,1142.09L2071.91,1142.09L2071.91,1254.65L1900.97,1254.65L1900.97,743.404L2071.91,743.404L2071.91,855.959Z" style="fill:rgb(255,165,104);fill-rule:nonzero;"/></g><g transform="matrix(0.954495,0,0,0.560911,-584.744,-295.954)"><path d="M2206.18,743.404L2206.18,1021.4C2206.18,1036.32 2206.52,1051.58 2207.18,1067.17C2207.84,1082.77 2209.84,1096.89 2213.16,1109.55C2216.48,1122.2 2221.72,1132.49 2228.9,1140.4C2236.07,1148.31 2246.16,1152.26 2259.18,1152.26C2272.19,1152.26 2282.22,1148.31 2289.26,1140.4C2296.3,1132.49 2301.55,1122.2 2305,1109.55C2308.45,1096.89 2310.51,1082.77 2311.18,1067.17C2311.84,1051.58 2312.17,1036.32 2312.17,1021.4L2312.17,743.404L2389.87,743.404L2389.87,1039.71C2389.87,1119.27 2379.18,1177.35 2357.8,1213.97C2336.41,1250.58 2303.54,1268.89 2259.18,1268.89C2214.82,1268.89 2181.88,1250.58 2160.36,1213.97C2138.85,1177.35 2128.09,1119.27 2128.09,1039.71L2128.09,743.404L2206.18,743.404Z" style="fill:rgb(255,165,104);fill-rule:nonzero;"/><path d="M2206.18,743.404L2206.18,1021.4C2206.18,1036.32 2206.52,1051.58 2207.18,1067.17C2207.84,1082.77 2209.84,1096.89 2213.16,1109.55C2216.48,1122.2 2221.72,1132.49 2228.9,1140.4C2236.07,1148.31 2246.16,1152.26 2259.18,1152.26C2272.19,1152.26 2282.22,1148.31 2289.26,1140.4C2296.3,1132.49 2301.55,1122.2 2305,1109.55C2308.45,1096.89 2310.51,1082.77 2311.18,1067.17C2311.84,1051.58 2312.17,1036.32 2312.17,1021.4L2312.17,743.404L2389.87,743.404L2389.87,1039.71C2389.87,1119.27 2379.18,1177.35 2357.8,1213.97C2336.41,1250.58 2303.54,1268.89 2259.18,1268.89C2214.82,1268.89 2181.88,1250.58 2160.36,1213.97C2138.85,1177.35 2128.09,1119.27 2128.09,1039.71L2128.09,743.404L2206.18,743.404Z" style="fill:rgb(255,165,104);fill-rule:nonzero;"/></g><g transform="matrix(0.954495,0,0,0.560911,-584.744,-295.954)"><path d="M2617.79,874.267C2609.29,862.514 2600.79,853.812 2592.29,848.162C2583.78,842.512 2575.55,839.686 2567.58,839.686C2557.49,839.686 2549.25,843.755 2542.88,851.891C2536.5,860.028 2533.32,870.65 2533.32,883.759C2533.32,892.8 2534.91,900.258 2538.1,906.135C2541.28,912.011 2545.47,917.096 2550.65,921.391C2555.83,925.685 2561.67,929.414 2568.18,932.578C2574.69,935.742 2581.13,939.133 2587.5,942.749C2613.01,957.214 2631.67,976.538 2643.49,1000.72C2655.31,1024.9 2661.22,1056.43 2661.22,1095.31C2661.22,1121.53 2658.63,1145.26 2653.45,1166.5C2648.27,1187.75 2640.7,1205.94 2630.74,1221.09C2620.78,1236.23 2608.56,1247.98 2594.08,1256.34C2579.6,1264.71 2563.2,1268.89 2544.87,1268.89C2506.88,1268.89 2471.69,1249.68 2439.28,1211.25L2472.75,1104.12C2484.44,1121.75 2495.99,1134.86 2507.41,1143.45C2518.84,1152.04 2530.13,1156.33 2541.28,1156.33C2554.03,1156.33 2563.53,1151.36 2569.77,1141.42C2576.02,1131.47 2579.14,1120.17 2579.14,1107.51C2579.14,1099.83 2578.34,1093.16 2576.75,1087.51C2575.15,1081.86 2572.5,1076.66 2568.78,1071.92C2565.06,1067.17 2560.21,1062.76 2554.23,1058.69C2548.26,1054.63 2541.02,1050.11 2532.52,1045.13C2522.42,1039.71 2512.53,1033.72 2502.83,1027.16C2493.14,1020.61 2484.5,1011.91 2476.93,1001.06C2469.36,990.212 2463.25,976.538 2458.6,960.039C2453.96,943.54 2451.63,922.634 2451.63,897.32C2451.63,872.006 2454.09,849.066 2459,828.499C2463.92,807.931 2470.82,790.302 2479.72,775.611C2488.62,760.92 2499.51,749.507 2512.4,741.37C2525.28,733.234 2539.69,729.165 2555.63,729.165C2570.5,729.165 2586.04,732.669 2602.25,739.675C2618.45,746.681 2633.99,756.965 2648.87,770.526L2617.79,874.267Z" style="fill:rgb(255,165,104);fill-rule:nonzero;"/><path d="M2617.79,874.267C2609.29,862.514 2600.79,853.812 2592.29,848.162C2583.78,842.512 2575.55,839.686 2567.58,839.686C2557.49,839.686 2549.25,843.755 2542.88,851.891C2536.5,860.028 2533.32,870.65 2533.32,883.759C2533.32,892.8 2534.91,900.258 2538.1,906.135C2541.28,912.011 2545.47,917.096 2550.65,921.391C2555.83,925.685 2561.67,929.414 2568.18,932.578C2574.69,935.742 2581.13,939.133 2587.5,942.749C2613.01,957.214 2631.67,976.538 2643.49,1000.72C2655.31,1024.9 2661.22,1056.43 2661.22,1095.31C2661.22,1121.53 2658.63,1145.26 2653.45,1166.5C2648.27,1187.75 2640.7,1205.94 2630.74,1221.09C2620.78,1236.23 2608.56,1247.98 2594.08,1256.34C2579.6,1264.71 2563.2,1268.89 2544.87,1268.89C2506.88,1268.89 2471.69,1249.68 2439.28,1211.25L2472.75,1104.12C2484.44,1121.75 2495.99,1134.86 2507.41,1143.45C2518.84,1152.04 2530.13,1156.33 2541.28,1156.33C2554.03,1156.33 2563.53,1151.36 2569.77,1141.42C2576.02,1131.47 2579.14,1120.17 2579.14,1107.51C2579.14,1099.83 2578.34,1093.16 2576.75,1087.51C2575.15,1081.86 2572.5,1076.66 2568.78,1071.92C2565.06,1067.17 2560.21,1062.76 2554.23,1058.69C2548.26,1054.63 2541.02,1050.11 2532.52,1045.13C2522.42,1039.71 2512.53,1033.72 2502.83,1027.16C2493.14,1020.61 2484.5,1011.91 2476.93,1001.06C2469.36,990.212 2463.25,976.538 2458.6,960.039C2453.96,943.54 2451.63,922.634 2451.63,897.32C2451.63,872.006 2454.09,849.066 2459,828.499C2463.92,807.931 2470.82,790.302 2479.72,775.611C2488.62,760.92 2499.51,749.507 2512.4,741.37C2525.28,733.234 2539.69,729.165 2555.63,729.165C2570.5,729.165 2586.04,732.669 2602.25,739.675C2618.45,746.681 2633.99,756.965 2648.87,770.526L2617.79,874.267Z" style="fill:rgb(255,165,104);fill-rule:nonzero;"/></g><g transform="matrix(0.42908,0,0,0.255637,644.401,237.593)"><path d="M917.515,995.19L917.515,1203.31L880.836,1203.31L880.836,995.19L867.852,995.19L867.852,937.983L880.836,937.983L880.836,835.556C880.836,802.14 884.298,778.53 891.223,764.728C900.744,745.477 914.594,735.852 932.771,735.852C939.263,735.852 947.432,739.03 957.278,745.387L957.278,808.042L953.545,804.773C945.647,798.053 939.155,794.694 934.07,794.694C927.578,794.694 923.196,798.598 920.923,806.407C918.651,814.035 917.515,828.745 917.515,850.538L917.515,937.983L957.278,937.983L957.278,995.19L917.515,995.19Z" style="fill:rgb(170,41,19);fill-rule:nonzero;"/><path d="M917.515,995.19L917.515,1203.31L880.836,1203.31L880.836,995.19L867.852,995.19L867.852,937.983L880.836,937.983L880.836,835.556C880.836,802.14 884.298,778.53 891.223,764.728C900.744,745.477 914.594,735.852 932.771,735.852C939.263,735.852 947.432,739.03 957.278,745.387L957.278,808.042L953.545,804.773C945.647,798.053 939.155,794.694 934.07,794.694C927.578,794.694 923.196,798.598 920.923,806.407C918.651,814.035 917.515,828.745 917.515,850.538L917.515,937.983L957.278,937.983L957.278,995.19L917.515,995.19Z" style="fill:rgb(170,41,19);fill-rule:nonzero;"/><path d="M978.377,937.983L1014.89,937.983L1014.89,961.683C1021.6,949.879 1027.55,941.797 1032.75,937.438C1038.05,932.898 1044.32,930.628 1051.57,930.628C1061.2,930.628 1071.27,935.895 1081.76,946.428L1065.05,1002.55C1058.12,994.191 1051.36,990.014 1044.76,990.014C1024.85,990.014 1014.89,1015.26 1014.89,1065.75L1014.89,1203.31L978.377,1203.31L978.377,937.983Z" style="fill:rgb(170,41,19);fill-rule:nonzero;"/><path d="M978.377,937.983L1014.89,937.983L1014.89,961.683C1021.6,949.879 1027.55,941.797 1032.75,937.438C1038.05,932.898 1044.32,930.628 1051.57,930.628C1061.2,930.628 1071.27,935.895 1081.76,946.428L1065.05,1002.55C1058.12,994.191 1051.36,990.014 1044.76,990.014C1024.85,990.014 1014.89,1015.26 1014.89,1065.75L1014.89,1203.31L978.377,1203.31L978.377,937.983Z" style="fill:rgb(170,41,19);fill-rule:nonzero;"/><path d="M1216.96,937.983L1253.63,937.983L1253.63,1203.31L1216.96,1203.31L1216.96,1175.53C1201.92,1199.14 1185.74,1210.94 1168.43,1210.94C1146.57,1210.94 1128.5,1197.68 1114.22,1171.17C1100.05,1144.11 1092.96,1110.33 1092.96,1069.83C1092.96,1030.06 1100.05,996.916 1114.22,970.401C1128.39,943.886 1146.14,930.628 1167.45,930.628C1185.85,930.628 1202.35,943.341 1216.96,968.766L1216.96,937.983ZM1130.29,1069.83C1130.29,1095.26 1134.35,1115.96 1142.46,1131.94C1150.79,1148.11 1161.29,1156.19 1173.95,1156.19C1187.47,1156.19 1198.4,1148.38 1206.73,1132.76C1215.06,1116.6 1219.23,1096.07 1219.23,1071.19C1219.23,1046.31 1215.06,1025.79 1206.73,1009.63C1198.4,993.828 1187.58,985.928 1174.27,985.928C1161.72,985.928 1151.23,993.919 1142.79,1009.9C1134.45,1026.06 1130.29,1046.04 1130.29,1069.83Z" style="fill:rgb(170,41,19);fill-rule:nonzero;"/><path d="M1216.96,937.983L1253.63,937.983L1253.63,1203.31L1216.96,1203.31L1216.96,1175.53C1201.92,1199.14 1185.74,1210.94 1168.43,1210.94C1146.57,1210.94 1128.5,1197.68 1114.22,1171.17C1100.05,1144.11 1092.96,1110.33 1092.96,1069.83C1092.96,1030.06 1100.05,996.916 1114.22,970.401C1128.39,943.886 1146.14,930.628 1167.45,930.628C1185.85,930.628 1202.35,943.341 1216.96,968.766L1216.96,937.983ZM1130.29,1069.83C1130.29,1095.26 1134.35,1115.96 1142.46,1131.94C1150.79,1148.11 1161.29,1156.19 1173.95,1156.19C1187.47,1156.19 1198.4,1148.38 1206.73,1132.76C1215.06,1116.6 1219.23,1096.07 1219.23,1071.19C1219.23,1046.31 1215.06,1025.79 1206.73,1009.63C1198.4,993.828 1187.58,985.928 1174.27,985.928C1161.72,985.928 1151.23,993.919 1142.79,1009.9C1134.45,1026.06 1130.29,1046.04 1130.29,1069.83Z" style="fill:rgb(170,41,19);fill-rule:nonzero;"/><path d="M1299.73,937.983L1336.25,937.983L1336.25,962.501C1343.28,950.151 1349.28,941.797 1354.26,937.438C1359.56,932.898 1366.22,930.628 1374.22,930.628C1392.08,930.628 1406.2,943.704 1416.58,969.856C1428.05,943.704 1443.58,930.628 1463.16,930.628C1498.76,930.628 1516.56,966.859 1516.56,1039.32L1516.56,1203.31L1479.88,1203.31L1479.88,1055.94C1479.88,1030.51 1478.04,1012.53 1474.36,1002C1470.57,991.286 1464.35,985.928 1455.7,985.928C1445.63,985.928 1438.3,992.284 1433.71,1005C1429.11,1017.71 1426.81,1038.14 1426.81,1066.29L1426.81,1203.31L1390.13,1203.31L1390.13,1056.76C1390.13,1009.54 1382.01,985.928 1365.78,985.928C1355.51,985.928 1348.01,992.375 1343.31,1005.27C1338.6,1018.16 1336.25,1038.5 1336.25,1066.29L1336.25,1203.31L1299.73,1203.31L1299.73,937.983Z" style="fill:rgb(170,41,19);fill-rule:nonzero;"/><path d="M1299.73,937.983L1336.25,937.983L1336.25,962.501C1343.28,950.151 1349.28,941.797 1354.26,937.438C1359.56,932.898 1366.22,930.628 1374.22,930.628C1392.08,930.628 1406.2,943.704 1416.58,969.856C1428.05,943.704 1443.58,930.628 1463.16,930.628C1498.76,930.628 1516.56,966.859 1516.56,1039.32L1516.56,1203.31L1479.88,1203.31L1479.88,1055.94C1479.88,1030.51 1478.04,1012.53 1474.36,1002C1470.57,991.286 1464.35,985.928 1455.7,985.928C1445.63,985.928 1438.3,992.284 1433.71,1005C1429.11,1017.71 1426.81,1038.14 1426.81,1066.29L1426.81,1203.31L1390.13,1203.31L1390.13,1056.76C1390.13,1009.54 1382.01,985.928 1365.78,985.928C1355.51,985.928 1348.01,992.375 1343.31,1005.27C1338.6,1018.16 1336.25,1038.5 1336.25,1066.29L1336.25,1203.31L1299.73,1203.31L1299.73,937.983Z" style="fill:rgb(170,41,19);fill-rule:nonzero;"/><path d="M1706.61,1085.09L1593.33,1085.09C1594.3,1106.88 1598.52,1124.22 1605.99,1137.12C1613.45,1149.83 1623.03,1156.19 1634.71,1156.19C1643.8,1156.19 1651.32,1152.56 1657.27,1145.29C1663.12,1138.03 1669.77,1124.59 1677.23,1104.97L1708.07,1133.85C1703.31,1147.47 1698.28,1159.14 1692.98,1168.85C1687.68,1178.57 1682,1186.56 1675.94,1192.83C1669.88,1199.09 1663.33,1203.68 1656.3,1206.58C1649.27,1209.49 1641.64,1210.94 1633.41,1210.94C1609.83,1210.94 1590.89,1198.23 1576.61,1172.8C1562.33,1147.2 1555.19,1113.24 1555.19,1070.92C1555.19,1028.97 1562.11,995.009 1575.96,969.038C1589.92,943.432 1608.42,930.628 1631.47,930.628C1654.73,930.628 1673.12,943.068 1686.65,967.949C1700.06,992.648 1706.77,1026.88 1706.77,1070.65L1706.61,1085.09ZM1669.12,1034.96C1664.03,1002.27 1651.75,985.928 1632.28,985.928C1627.84,985.928 1623.68,987.063 1619.78,989.333C1615.89,991.603 1612.34,994.872 1609.15,999.14C1605.96,1003.41 1603.23,1008.54 1600.95,1014.53C1598.68,1020.52 1596.95,1027.34 1595.76,1034.96L1669.12,1034.96Z" style="fill:rgb(170,41,19);fill-rule:nonzero;"/><path d="M1706.61,1085.09L1593.33,1085.09C1594.3,1106.88 1598.52,1124.22 1605.99,1137.12C1613.45,1149.83 1623.03,1156.19 1634.71,1156.19C1643.8,1156.19 1651.32,1152.56 1657.27,1145.29C1663.12,1138.03 1669.77,1124.59 1677.23,1104.97L1708.07,1133.85C1703.31,1147.47 1698.28,1159.14 1692.98,1168.85C1687.68,1178.57 1682,1186.56 1675.94,1192.83C1669.88,1199.09 1663.33,1203.68 1656.3,1206.58C1649.27,1209.49 1641.64,1210.94 1633.41,1210.94C1609.83,1210.94 1590.89,1198.23 1576.61,1172.8C1562.33,1147.2 1555.19,1113.24 1555.19,1070.92C1555.19,1028.97 1562.11,995.009 1575.96,969.038C1589.92,943.432 1608.42,930.628 1631.47,930.628C1654.73,930.628 1673.12,943.068 1686.65,967.949C1700.06,992.648 1706.77,1026.88 1706.77,1070.65L1706.61,1085.09ZM1669.12,1034.96C1664.03,1002.27 1651.75,985.928 1632.28,985.928C1627.84,985.928 1623.68,987.063 1619.78,989.333C1615.89,991.603 1612.34,994.872 1609.15,999.14C1605.96,1003.41 1603.23,1008.54 1600.95,1014.53C1598.68,1020.52 1596.95,1027.34 1595.76,1034.96L1669.12,1034.96Z" style="fill:rgb(170,41,19);fill-rule:nonzero;"/><path d="M1761.31,937.983L1802.69,1089.44L1847.32,913.738L1892.28,1089.44L1933.18,937.983L1974.08,937.983L1891.31,1223.2L1847.32,1052.4L1802.85,1223.2L1720.24,937.983L1761.31,937.983Z" style="fill:rgb(170,41,19);fill-rule:nonzero;"/><path d="M1761.31,937.983L1802.69,1089.44L1847.32,913.738L1892.28,1089.44L1933.18,937.983L1974.08,937.983L1891.31,1223.2L1847.32,1052.4L1802.85,1223.2L1720.24,937.983L1761.31,937.983Z" style="fill:rgb(170,41,19);fill-rule:nonzero;"/><path d="M1985.28,1068.74C1985.28,1030.42 1993.45,997.824 2009.78,970.945C2026.12,944.067 2046.03,930.628 2069.51,930.628C2093.1,930.628 2113.11,944.158 2129.56,971.218C2145.79,998.278 2153.91,1031.51 2153.91,1070.92C2153.91,1110.69 2145.74,1144.02 2129.4,1170.9C2112.95,1197.59 2092.77,1210.94 2068.86,1210.94C2045.16,1210.94 2025.31,1197.32 2009.3,1170.08C1993.28,1143.2 1985.28,1109.42 1985.28,1068.74ZM2022.61,1069.83C2022.61,1096.35 2026.83,1117.32 2035.27,1132.76C2043.92,1148.38 2055.34,1156.19 2069.51,1156.19C2083.79,1156.19 2095.21,1148.47 2103.76,1133.03C2112.3,1117.6 2116.58,1096.98 2116.58,1071.19C2116.58,1045.4 2112.3,1024.79 2103.76,1009.36C2095.1,993.737 2083.68,985.928 2069.51,985.928C2055.55,985.928 2044.25,993.737 2035.59,1009.36C2026.93,1024.97 2022.61,1045.13 2022.61,1069.83Z" style="fill:rgb(170,41,19);fill-rule:nonzero;"/><path d="M1985.28,1068.74C1985.28,1030.42 1993.45,997.824 2009.78,970.945C2026.12,944.067 2046.03,930.628 2069.51,930.628C2093.1,930.628 2113.11,944.158 2129.56,971.218C2145.79,998.278 2153.91,1031.51 2153.91,1070.92C2153.91,1110.69 2145.74,1144.02 2129.4,1170.9C2112.95,1197.59 2092.77,1210.94 2068.86,1210.94C2045.16,1210.94 2025.31,1197.32 2009.3,1170.08C1993.28,1143.2 1985.28,1109.42 1985.28,1068.74ZM2022.61,1069.83C2022.61,1096.35 2026.83,1117.32 2035.27,1132.76C2043.92,1148.38 2055.34,1156.19 2069.51,1156.19C2083.79,1156.19 2095.21,1148.47 2103.76,1133.03C2112.3,1117.6 2116.58,1096.98 2116.58,1071.19C2116.58,1045.4 2112.3,1024.79 2103.76,1009.36C2095.1,993.737 2083.68,985.928 2069.51,985.928C2055.55,985.928 2044.25,993.737 2035.59,1009.36C2026.93,1024.97 2022.61,1045.13 2022.61,1069.83Z" style="fill:rgb(170,41,19);fill-rule:nonzero;"/><path d="M2192.53,937.983L2229.05,937.983L2229.05,961.683C2235.76,949.879 2241.71,941.797 2246.9,937.438C2252.2,932.898 2258.48,930.628 2265.73,930.628C2275.36,930.628 2285.42,935.895 2295.92,946.428L2279.2,1002.55C2272.28,994.191 2265.51,990.014 2258.91,990.014C2239,990.014 2229.05,1015.26 2229.05,1065.75L2229.05,1203.31L2192.53,1203.31L2192.53,937.983Z" style="fill:rgb(170,41,19);fill-rule:nonzero;"/><path d="M2192.53,937.983L2229.05,937.983L2229.05,961.683C2235.76,949.879 2241.71,941.797 2246.9,937.438C2252.2,932.898 2258.48,930.628 2265.73,930.628C2275.36,930.628 2285.42,935.895 2295.92,946.428L2279.2,1002.55C2272.28,994.191 2265.51,990.014 2258.91,990.014C2239,990.014 2229.05,1015.26 2229.05,1065.75L2229.05,1203.31L2192.53,1203.31L2192.53,937.983Z" style="fill:rgb(170,41,19);fill-rule:nonzero;"/><path d="M2358.4,743.207L2358.4,1023.79L2409.85,937.983L2458.86,937.983L2390.21,1049.4L2463.89,1203.31L2416.5,1203.31L2364.24,1091.35L2358.4,1101.16L2358.4,1203.31L2321.88,1203.31L2321.88,743.207L2358.4,743.207Z" style="fill:rgb(170,41,19);fill-rule:nonzero;"/><path d="M2358.4,743.207L2358.4,1023.79L2409.85,937.983L2458.86,937.983L2390.21,1049.4L2463.89,1203.31L2416.5,1203.31L2364.24,1091.35L2358.4,1101.16L2358.4,1203.31L2321.88,1203.31L2321.88,743.207L2358.4,743.207Z" style="fill:rgb(170,41,19);fill-rule:nonzero;"/></g></g></g></svg>